<!-- Generated by IcoMoon.io -->
<svg version="1.1" xmlns="http://www.w3.org/2000/svg" width="1024" height="1024" viewBox="0 0 1024 1024">
<g id="icomoon-ignore">
</g>
<path d="M932 764v168h-378v-168h378zM470 764v168h-378v-168h378zM932 512v168h-378v-168h378zM470 512v168h-378v-168h378zM932 260v168h-378v-168h378zM470 260v168h-378v-168h378zM8 50v924l0.218 4.295 0.639 4.171 1.039 4.025 1.418 3.859 3.884 7.134 5.139 6.216 6.222 5.128 7.133 3.872 3.854 1.412 4.017 1.035 4.158 0.636 4.278 0.217 932.466-0.853 4.025-1.035 3.859-1.412 7.134-3.872 6.216-5.128 5.128-6.216 3.872-7.134 1.412-3.859 1.035-4.025 0.636-4.171 0.217-4.295v-924l-0.217-4.295-0.636-4.171-1.035-4.025-1.412-3.859-3.872-7.134-5.128-6.216-6.216-5.128-7.134-3.872-3.859-1.412-4.025-1.035-4.171-0.636-4.295-0.217-932.437 0.853-4.017 1.035-3.854 1.412-7.133 3.872-6.222 5.128-5.139 6.216-3.884 7.134-1.418 3.859-1.039 4.025-0.639 4.171-0.218 4.295z"></path>
</svg>
